 <svg xmlns="http://www.w3.org/2000/svg" class="dogespinner" viewBox="0 0 427.37 423.75">
<style>
  .dogespinner {
    width: 200px;
    height: 200px;
  }

  .spinmeroundroundbaby {
    transform-origin: center;
    animation: rotator 1.8s linear infinite;
  }

  @keyframes rotator {
    0% {
      transform: rotate(0deg);
    }

    100% {
      transform: rotate(360deg);
    }
  }

  .path {
    stroke-dasharray: 150;
    stroke-dashoffset: 0;
    transform-origin: center;
    stroke: #fbb03b;
    animation:
      dash 1.8s ease-in-out infinite;
  }

  #dogehead,
  #suit,
  #helmet,
  #reflection {
    transform-origin: center;
    animation: bobby 8s cubic-bezier(0.785, 0.145, 0.15, 0.86) infinite;
  }

  @keyframes dash {
    50% {
      transform: rotate(135deg);
    }

    100% {
      transform: rotate(360deg);
    }
  }

  @keyframes bobby {
    0% {
      transform: rotate(-7deg);
    }

    40% {
      transform: rotate(10deg);
    }

    100% {
      transform: rotate(-7deg);
    }
  }
</style>
<defs>
  <style>
  .cls-1{fill:#034051;}.cls-2{fill:#fbb03b;}.cls-3{fill:#9e9ea9;}.cls-4{fill:#cfa551;}.cls-5{fill:#e5ca9e;}.cls-6{fill:#ba8934;}.cls-7{fill:#895d1b;}.cls-8{fill:#efbf6c;}.cls-9{fill:#4a3d28;}.cls-10{fill:#61584c;}.cls-11{fill:#1c1a18;}.cls-12{fill:#724b17;}.cls-13{fill:#f2f2f2;}.cls-14{fill:#717377;}.cls-15{fill:#e4e4e4;}.cls-16{fill:#c4bec8;}.cls-17{fill:#fff;opacity:0.55;}</style>
</defs>
<title>dogespinner</title>
<g id="svgbackground" class="spinmeroundroundbaby">
  <circle class="path" fill="none" stroke-width="12" stroke-linecap="round" cx="213.58" cy="209.96" r="200"></circle>
</g>
<g id="actualbg">
  <circle class="cls-1" cx="213.58" cy="209.96" r="190.74" />
</g>
<g id="dogehead">
  <ellipse class="cls-3" cx="211.58" cy="201.45" rx="157.86" ry="155.68" />
  <g id="face">
    <path class="cls-4" d="M95.48,272.07s-10.67,21.79,6.12,52.62S239,365.83,239,365.83s67.74-4.75,73.73-26.35c8.5-30.65,9.61-32.07-5.88-87.71S95.48,272.07,95.48,272.07Z" />
    <path class="cls-5" d="M120,341s-9.26-60,50-48.26S241.92,316,253.7,372.83C255.09,379.51,120,341,120,341Z" />
    <path class="cls-4" d="M269.5,113.26s24.43,1.43,44.71-7.86,35.78-.25,35.67,13.19c-.23,25.22-18.68,49.21-27.85,52.53-5.62,2-.71,21-.71,21l-43.27-21.26Z" />
    <path class="cls-6" d="M350,115.83c-2.18-5.32-5.74-10.55-11.34-10.67-11.48-.25-8.43,3.91-20.4,4.52-5.8.29-18.5,13.07-22.14,13.8s-20.49-3.91-20.49-3.91l25.16,53.58a160.65,160.65,0,0,0,20.85-1.84,2.57,2.57,0,0,1,.41-.19c9.17-3.32,26.14-27.36,27.85-52.53C349.94,117.63,350,116.72,350,115.83Z" />
    <path class="cls-7" d="M311.24,166c-4.8-9.12-15.84-26-13.55-37.53l-16.36,3,19.56,41.65a160.65,160.65,0,0,0,20.85-1.84,2.93,2.93,0,0,1,.4-.19c3.34-1.21,7.71-5.17,12-10.92C334,160.33,316,175.07,311.24,166Z" />
    <path class="cls-7" d="M284.08,133.41l2.32,4.93c14.17-12.1,24.27-22.84,30.14-24.31s9.7-2.27,13-7.41c-2,1-4.33,2-9.7,2.24-5.8.3-18.5,13.07-22.13,13.81l-13.62,10.74Z" />
    <path class="cls-4" d="M202.29,93.4S168.85,60,159.56,55.81s-11.32-2.44-11.77,5.86,2,30.54,6.25,33.72a11,11,0,0,0-3.76,1.22s4.68,5.78,4.4,7S202.29,93.4,202.29,93.4Z" />
    <path class="cls-6" d="M159.56,55.81c-.6-.27-1.17-.51-1.71-.73a3.42,3.42,0,0,0-2.8,1c-2.81,3.67,2.06,15.63,6.35,24.43,2.15,4.42.95,4.53.76,11.48-.13,4.31-.1,7.65-.06,9.57,11.51-1.91,40.19-8.14,40.19-8.14S168.85,60,159.56,55.81Z" />
    <path class="cls-4" d="M122.92,108.33s-3.91,1.47-5.86,8.8-15.15,15.63-25.41,30.29S56.47,211.43,77,266.15,227.48,337,259.24,315.5s84-69.38,66.94-115.8-43.49-79.64-59.61-91.37-50.82-26.87-87.95-15.14S148.33,107.84,141,109.31s-6.84-6.35-6.84-6.35-4.89,2.93-3.42,7.82C130.74,110.78,133.67,115.66,122.92,108.33Z" />
    <path class="cls-8" d="M326.18,199.7c-17.1-46.41-43.49-79.64-59.61-91.37s-50.82-26.87-87.95-15.14S148.33,107.85,141,109.31h-.06a1.9,1.9,0,0,0,.17,3.77,8.52,8.52,0,0,0,2-.17c7.06-1.41.47-4.23,36.23-15.53s69.16,3.3,84.69,14.59,40.94,43.29,57.4,88c7.75,21,.71,42.36-12.1,61.22a2.31,2.31,0,0,0-.09,2.49h0a2.34,2.34,0,0,0,3.95.14C326.78,244.11,334.3,221.74,326.18,199.7Z" />
    <path class="cls-7" d="M134.16,103s-5.76,3-3.42,7.82c.1.2.44,1,.34,1.25h0a1.52,1.52,0,0,0,2.21-1.18C133.62,107.88,134.16,103,134.16,103Z" />
    <path class="cls-5" d="M245.89,284.56s20.19,9.12,41-27.69.32-52.12-4.56-56-21.18-14.33-31.6-11.72-25.08,18.56-41,19.54-22.15-10.42-27.69-9.45-3.91,8.8-10.1,8.47-8.14-14.33-17.26-17.59-20.85,7.11-28.34,5.68S113,178.69,112.66,165.34s11.77-19.87,6.56-25.74-17.54,9.78-23.08,23.46S89.93,177.39,86,184.23s-28.08,38.44-6.59,84.69S200.34,325.27,214,320.06,248.17,312.89,245.89,284.56Z" />
    <path class="cls-7" d="M250.31,316.83c-38.53,10.08-147-2.66-165.79-52.87-19.76-52.7,1.23-100.22,11.12-114.34s22.58-22.11,24.46-29.17a18.94,18.94,0,0,1,5.88-9.8h0l.22-.19c-.93-.52-2-1.25-3.28-2.13,0,0-3.91,1.47-5.86,8.8s-15.15,15.63-25.41,30.29S56.47,211.43,77,266.15C97.19,320,223.35,336.47,257.64,316.5A17.77,17.77,0,0,0,250.31,316.83Z" />
    <path class="cls-6" d="M171.94,151l25.41-27.36c4.24-4.56,7.49-7.16,5.21-9.77s-12.05,3.58-16.61,10.75S177.16,135,171.94,151Z" />
    <path class="cls-9" d="M142.63,244.16s-1-4.56-4.89-6.18-10.1-6.52-10.75-10.1,3.91-9.12,7.17-12.71,6.51-5.53,6.51-11.07-29.64-30-40.71-8.33-6.84,21-6.52,25.27S92,219.73,92.38,225s3.34,6.51,4.64,9.77-1.3,14.33,8.15,18.89c8.35,4,17.1,4.75,22.89,2.39a7.18,7.18,0,0,1,4.55-.31c3.23.85,9.21,1.85,15.08-.3a6.75,6.75,0,0,1,5.45.45c3.16,1.64,9.46,2.23,18.8-9.07C171.94,246.77,151.1,249.38,142.63,244.16Z" />
    <path class="cls-10" d="M101.6,182.84s5.4-7.32,12.06-8.42S136.44,180,141,184.07a27.37,27.37,0,0,1,3.87,4.46,9.67,9.67,0,0,1-1.71,13.11c-3.47,2.81-7.78,5.25-11,3.6C125.69,202,101.6,182.84,101.6,182.84Z" />
    <path d="M144.87,188.53a27.37,27.37,0,0,0-3.87-4.46c-4.56-4.07-20.69-10.75-27.34-9.65s-12.06,8.42-12.06,8.42,24.09,19.14,30.53,22.4c3.25,1.65,7.56-.79,11-3.6A9.67,9.67,0,0,0,144.87,188.53Zm-2.53,12.92c-3.19,2.59-6.84,4.11-9.84,2.59-5.93-3-28.13-19.63-28.13-19.63s5-6.75,11.12-7.76,21,5.14,25.18,8.89a25.33,25.33,0,0,1,3.57,4.11A8.62,8.62,0,0,1,142.34,201.45Z" />
    <path class="cls-11" d="M111.36,213.71a27,27,0,0,1-11.89-23.62c.65-16.12,16.61-9,22.31-7.33s17.1,7.11,16.61,14-2.59,8.34-6.26,8.5C132.13,205.24,126.5,218.59,111.36,213.71Z" />
    <path d="M121.78,182.76c-5.7-1.62-21.66-8.79-22.31,7.33a27,27,0,0,0,11.89,23.62c15.14,4.88,20.77-8.47,20.77-8.47,3.67-.16,5.77-1.63,6.26-8.5S127.48,184.39,121.78,182.76Zm15.13,14c-.39,5.6-1.56,7.21-4.15,7.62a81.81,81.81,0,0,1-2.43-10.72c-.57-4.16-9.91.32-8.22,4,1.22,2.7,2.09,3.51,4.23,4.17a8.17,8.17,0,0,1,4.58,3.87c-1.86,3-7.51,9.93-18.17,6.93-1.7-5.82,3.41-17.31.72-14.3s-3.84,11.83-3.84,11.84A27.45,27.45,0,0,1,103,193.71c.53.56,1.16,1.26,1.82,2.06,1.71,2.06,5.3.57,6-1.74s.32-6.63-2.93-7.08c-2.3-.31-3.79,1.16-4.81,2.19,1.25-11.74,13.45-5.72,18.51-4.27C126.83,186.37,137.36,190.43,136.91,196.78Z" />
    <path d="M91.16,216.51c.35,1.69-.23,4.81,3.1,6.76,1.87,1.09,7.66,1.3,13.51,4.65,3.73,2.13,4.89,2.24,8.15,4s18.24,11.73,24.75,13.84,24.6,3.59,31.27,1,4,1.37,4.89,1.4c.69,0,1.79-.91.81-2.38s-2.44-3.74-5.7-2.44c-2.51,1-3.77.65-4.81.06a.62.62,0,0,0-.91.38c-.14.59-.6,1.26-1.93,1.35-2.44.16-17.31,2.12-29.59-5s-9.44-9.61-15.77-13.35c-4-2.37-7.08-1.79-9.69-2.45s-3.88-4.23-7.64-3.42-7.6-1.81-8.32-4.36-1.51-2.64-2.12-2.48C90.83,214.12,90.9,215.23,91.16,216.51Z" />
    <g id="freckles">
      <circle class="cls-7" cx="154.29" cy="232.78" r="0.76" />
      <circle class="cls-7" cx="87.68" cy="201.37" r="0.76" />
      <circle class="cls-7" cx="129.61" cy="228.3" r="0.76" />
      <circle class="cls-7" cx="161.4" cy="224.21" r="0.76" />
      <circle class="cls-7" cx="141.86" cy="217.84" r="1.01" />
      <circle class="cls-7" cx="92.75" cy="189.02" r="1.01" />
      <circle class="cls-7" cx="164.93" cy="216.29" r="1.01" />
      <circle class="cls-7" cx="153.03" cy="213.95" r="1.01" />
      <circle class="cls-7" cx="132.13" cy="224.75" r="1.3" />
      <circle class="cls-7" cx="137.69" cy="230.72" r="1.3" />
      <circle class="cls-7" cx="145.79" cy="232.37" r="1.3" />
      <circle class="cls-7" cx="158.27" cy="214.23" r="1.3" />
      <circle class="cls-7" cx="147.09" cy="215.28" r="1.3" />
      <circle class="cls-7" cx="91.45" cy="197.28" r="1.3" />
      <circle class="cls-7" cx="95.48" cy="201.37" r="1.3" />
      <circle class="cls-7" cx="92.23" cy="209.19" r="1.3" />
      <circle class="cls-7" cx="136.93" cy="218.35" r="1.52" />
      <circle class="cls-7" cx="88.01" cy="204.64" r="1.52" />
      <circle class="cls-7" cx="94.91" cy="192.73" r="1.52" />
      <circle class="cls-7" cx="153.53" cy="223.23" r="1.52" />
      <circle class="cls-7" cx="139.93" cy="225.27" r="1.52" />
      <circle class="cls-7" cx="165.94" cy="225.48" r="1.52" />
      <circle class="cls-7" cx="146.28" cy="223.97" r="1.52" />
    </g>
    <g id="whiskers_right" data-name="whiskers right">
      <path class="cls-12" d="M158.82,227.92s9,3.22,17.91,12.82-5.06-2.76-8.72-5.37S153.58,225.86,158.82,227.92Z" />
      <path class="cls-12" d="M173.32,215.93a82.38,82.38,0,0,1,26.39,8.46c14.55,7.63-7.15-1.38-12.53-3.09S166.22,215.45,173.32,215.93Z" />
      <path class="cls-12" d="M180.27,227.2A41.9,41.9,0,0,1,193.75,234c6.74,5.11-3.09-.62-5.85-2S176.33,226.11,180.27,227.2Z" />
    </g>
    <g id="whiskers_left" data-name="whiskers left">
      <path class="cls-12" d="M81.93,205.63a51.28,51.28,0,0,0-20.06,4.49c-10.88,4.77,5.44-.59,9.54-1.5S87.35,205.65,81.93,205.63Z" />
      <path class="cls-12" d="M85.36,188.4a46.33,46.33,0,0,0-18-2c-10.33.83,4.71,1,8.38,1.45S89.91,190,85.36,188.4Z" />
      <path class="cls-12" d="M78.67,199.51s-7.09-.34-20.43,6c-11.38,5.43.37,1,8.81-2.47C71.18,201.39,84.44,199.41,78.67,199.51Z" />
      <path class="cls-12" d="M85.64,180.42s-5.38-4.63-19.81-7.81c-12.32-2.71-.32,1,8.46,3.47C78.58,177.29,90.26,183.88,85.64,180.42Z" />
      <path class="cls-12" d="M80.49,196.74a61.84,61.84,0,0,0-20.59-1.21c-11.28,1.27,5,1.05,9.22,1.3S86,198.08,80.49,196.74Z" />
      <path class="cls-12" d="M97.26,174.87A108.27,108.27,0,0,0,74.79,151c-14-10.81,5.38,6.35,10,11.23S102.35,182.42,97.26,174.87Z" />
    </g>
    <g id="eye_left" data-name="eye left">
      <path class="cls-13" d="M150.74,144.29a1.46,1.46,0,0,0,.67-1.91c-1.55-3.28-5.62-10.47-11.4-9.79-7.48.87-16,4.54-17,10.16s.42,15.39,9.25,15.63,13.63-5.89,15.63-10.39C148.88,145.73,149.93,144.73,150.74,144.29Z" />
      <path d="M138.39,133.9s-12.86,9.45-5.53,23.38l6-.83,6.35-5,2.93-5.82,2.12-2.16-2.85-6.19-5.05-3.34Z" />
      <circle class="cls-13" cx="144.26" cy="141.88" r="2.12" />
      <path class="cls-11" d="M151.41,142.38c-1.55-3.28-5.62-10.47-11.4-9.79-7.48.87-16,4.54-17,10.16s.42,15.39,9.25,15.63,13.63-5.89,15.63-10.39c1-2.26,2.05-3.26,2.86-3.7A1.46,1.46,0,0,0,151.41,142.38Zm-2.71,2.08a6.25,6.25,0,0,0-2.43,3.15c-1.7,3.83-5.78,9-13.29,8.84s-8.69-8.52-7.86-13.3,8.1-7.89,14.46-8.63c4.92-.58,8.38,5.53,9.69,8.32A1.23,1.23,0,0,1,148.7,144.46Z" />
    </g>
    <g id="eye_right" data-name="eye right">
      <path class="cls-13" d="M189.6,177.32a4.51,4.51,0,0,1-1-4.24c1.36-5,6.34-13.12,23.6-14.69,12.22-1.11,19.64,16.76,19.37,22a3.85,3.85,0,0,1-1.42,2.62c-4.43,3.94-13.25,8.92-21.69,7C197.84,187.66,193.35,181.41,189.6,177.32Z" />
      <path d="M216.24,160.2s-18.92,7.31-10.09,27.46l5,2.37,6.68-1.32,9.29-5,2.93-2.33-.49-6.29-2.93-5.87-4.24-5.7Z" />
      <circle class="cls-13" cx="212.5" cy="169.57" r="3.58" />
      <path class="cls-11" d="M212.17,158.28c-17.33-.13-22.24,9.75-23.6,14.69a4.52,4.52,0,0,0,1,4.25c3.75,4.09,8.24,10.34,18.83,12.71,8.44,1.89,17.26-3.08,21.69-7a3.83,3.83,0,0,0,1.42-2.61C231.81,175.05,226.18,158.39,212.17,158.28ZM229,179.57a3.32,3.32,0,0,1-1.24,2.31c-3.9,3.47-11.9,8.65-19.11,6.18a25.79,25.79,0,0,1-12.54-8.29c-.93-1-3-1.91-2.63-3.23,1.2-4.36,3.21-16.31,18.47-16.34C222.92,160.17,229.21,175,229,179.57Z" />
    </g>
    <g xmlns="http://www.w3.org/2000/svg" id="blink" style="display:none;">
      <path d="M191.07,173.43c8.26,10.39,31.89,16,39.24,11.71,1.22-.7.76-2.34-.73-2.68-8.5-2-20.68-1.05-36.75-11.56C191.09,169.76,189.82,171.85,191.07,173.43Z" />
      <path d="M123.46,139.8c4.21,9.32,20.23,12.19,27.87,8.45,1.26-.62.91-2.28-.55-2.73-8.34-2.54-16.88,1.36-25.39-8.12C124,135.85,122.63,138,123.46,139.8Z" />
    </g>
  </g>
</g>
<g id="suit">
  <path class="cls-3" d="M190,356.58c-51.31-7.47-86.55-26.63-109.14-51.9-2,3-3.41,7.81-2.37,15.74C81,339.76,121,363.34,170.93,370.84c63.25,9.49,146-.16,146.8-34.67L285,352C261.06,359.7,230.12,362.42,190,356.58Z" />
  <path class="cls-14" d="M170.93,370.84c57.85,8.68,121.46,11,144.35-25.35,0,0-17.28,9.27-32.63,14.89-23.54,8.61-54.73,10-94.48,4.2-51.59-7.46-87-26.62-109.74-51.89l-.2.06a35.84,35.84,0,0,0,.23,7.67C81,339.77,121,363.34,170.93,370.84Z" />
</g>
<g id="helmet">
  <path class="cls-15" d="M290.55,61.83c-79.29-39-181-17.33-222.18,65.13S37.93,334.42,190.15,356.58C347.36,379.46,363.57,271.1,372,247.05,391,192.38,374.87,103.26,290.55,61.83Zm46.88,174.42c-7,20-23.53,116.46-154,97.46C57,315.32,44,205.72,81.07,133c34.79-68.17,115.44-90.16,181.27-57.81C332.34,109.63,353.26,190.87,337.43,236.25Z" />
  <path class="cls-16" d="M344.5,104.39c20,44.62,14.27,95.48,2.7,128.65-8.39,24-24.29,130.2-181.81,109.53-53.88-7.07-97.24-62.32-117.55-120,3.82,61.57,43,119.69,142.15,134.13C347.2,379.55,363.41,271.19,371.8,247.14,385.7,207.26,380.86,149.05,344.5,104.39Z" />
  <path class="cls-14" d="M262.34,75.23C196.51,42.88,115.86,64.87,81.07,133,44,205.72,57,315.32,183.38,333.71c130.52,19,147.09-77.49,154.05-97.46C353.26,190.87,332.34,109.63,262.34,75.23ZM329.7,234.08C323.14,252.9,307.52,343.86,184.49,326,65.36,308.61,53.07,205.3,88,136.79c32.8-64.26,108.82-85,170.88-54.5C324.9,114.72,344.62,191.3,329.7,234.08Z" />
</g>
<g id="reflection">
  <path class="cls-17" d="M89.39,148.78s25.43-36.48,45.46-50.65,56.68-23,60.1-7.82S161.24,104,142.67,113.76,96.23,141.94,89.39,148.78Z" />
  <path class="cls-17" d="M207.54,88.94c0-7.29,6.9-11.2,14.19-11.2s13.19,3.91,13.19,11.2a13.19,13.19,0,0,1-13.19,13.19C214.44,102.13,207.54,96.22,207.54,88.94Z" />
</g>
</svg>