<svg version="1.1" xmlns="http://www.w3.org/2000/svg" xmlns:xlink="http://www.w3.org/1999/xlink" width="785.1295" height="576.278" viewBox="0,0,785.1295,576.278"><g transform="translate(152.56475,108.139)"><g data-paper-data="{&quot;isPaintingLayer&quot;:true}" fill-rule="nonzero" stroke-linejoin="miter" stroke-miterlimit="10" stroke-dasharray="" stroke-dashoffset="0" style="mix-blend-mode: normal"><path d="M-152.56475,468.139v-576.278h785.1295v576.278z" fill="#000000" stroke="none" stroke-width="0" stroke-linecap="butt"/><path d="M90.65191,-13.6658l7.69619,387.3316" fill="none" stroke="#ffffff" stroke-width="0.5" stroke-linecap="round"/><path d="M327.65191,-13.6658l7.69619,387.3316" fill="none" stroke="#ffffff" stroke-width="0.5" stroke-linecap="round"/><path d="M202.65191,-13.6658l7.69619,387.3316" fill="none" stroke="#ffffff" stroke-width="0.5" stroke-linecap="round"/><path d="M439.65191,-13.6658l7.69619,387.3316" fill="none" stroke="#ffffff" stroke-width="0.5" stroke-linecap="round"/><path d="M32.65191,-13.6658l7.69619,387.3316" fill="none" stroke="#ffffff" stroke-width="0.5" stroke-linecap="round"/><path d="M269.65191,-13.6658l7.69619,387.3316" fill="none" stroke="#ffffff" stroke-width="0.5" stroke-linecap="round"/><path d="M144.65191,-13.6658l7.69619,387.3316" fill="none" stroke="#ffffff" stroke-width="0.5" stroke-linecap="round"/><path d="M381.65191,-13.6658l7.69619,387.3316" fill="none" stroke="#ffffff" stroke-width="0.5" stroke-linecap="round"/><path d="M-84.6658,375.44583l649.3316,-10.07169" fill="none" stroke="#ffffff" stroke-width="0.5" stroke-linecap="round"/><path d="M-84.6658,65.29348l649.3316,-10.07169" fill="none" stroke="#ffffff" stroke-width="0.5" stroke-linecap="round"/><path d="M-84.6658,228.87594l649.3316,-10.07169" fill="none" stroke="#ffffff" stroke-width="0.5" stroke-linecap="round"/><path d="M-84.6658,-81.2764l649.3316,-10.07169" fill="none" stroke="#ffffff" stroke-width="0.5" stroke-linecap="round"/><path d="M-84.6658,451.34809l649.3316,-10.07169" fill="none" stroke="#ffffff" stroke-width="0.5" stroke-linecap="round"/><path d="M-84.6658,141.19574l649.3316,-10.07169" fill="none" stroke="#ffffff" stroke-width="0.5" stroke-linecap="round"/><path d="M-84.6658,304.77821l649.3316,-10.07169" fill="none" stroke="#ffffff" stroke-width="0.5" stroke-linecap="round"/><path d="M-84.6658,-5.37414l649.3316,-10.07169" fill="none" stroke="#ffffff" stroke-width="0.5" stroke-linecap="round"/></g></g></svg>