<svg version="1.1" xmlns="http://www.w3.org/2000/svg" xmlns:xlink="http://www.w3.org/1999/xlink" width="38.02941" height="45.17366" viewBox="0,0,38.02941,45.17366"><g transform="translate(-220.98529,-157.41317)"><g data-paper-data="{&quot;isPaintingLayer&quot;:true}" fill-rule="nonzero" stroke-width="0" stroke-linecap="butt" stroke-linejoin="miter" stroke-miterlimit="10" stroke-dasharray="" stroke-dashoffset="0" style="mix-blend-mode: normal"><g><path d="M220.98529,179.54975c0,-10.50153 8.51317,-19.0147 19.0147,-19.0147c10.50153,0 19.01471,8.51317 19.01471,19.0147c0,10.50153 -8.51317,19.01471 -19.01471,19.01471c-10.50153,0 -19.0147,-8.51317 -19.0147,-19.01471z" fill="#b8b8b8" stroke="#ffffff"/><path d="M235.7684,202.58683v-6.48478h2.74779v6.48478z" fill="#b8b8b8" stroke="none"/><path d="M241.81354,202.58683v-6.48478h2.74779v6.48478z" fill="#b8b8b8" stroke="none"/><path d="M235.7684,162.02946v-4.61629h2.74779v4.61629z" fill="#b8b8b8" stroke="none"/><path d="M241.81354,162.02946v-4.61629h2.74779v4.61629z" fill="#b8b8b8" stroke="none"/><path d="M222.63397,179.76957c0,-9.6517 7.82425,-17.47594 17.47594,-17.47594c9.6517,0 17.47594,7.82425 17.47594,17.47594c0,9.6517 -7.82425,17.47594 -17.47594,17.47594c-9.6517,0 -17.47594,-7.82425 -17.47594,-17.47594z" fill="#282828" stroke="#ffffff"/><path d="M227.1953,179.72522c0,-1.15335 0.93497,-2.08832 2.08832,-2.08832c1.15335,0 2.08832,0.93497 2.08832,2.08832c0,1.15335 -0.93497,2.08832 -2.08832,2.08832c-1.15335,0 -2.08832,-0.93497 -2.08832,-2.08832z" fill="#b8b8b8" stroke="none"/><path d="M248.40824,179.72522c0,-1.15335 0.93497,-2.08832 2.08832,-2.08832c1.15335,0 2.08832,0.93497 2.08832,2.08832c0,1.15335 -0.93497,2.08832 -2.08832,2.08832c-1.15335,0 -2.08832,-0.93497 -2.08832,-2.08832z" fill="#b8b8b8" stroke="none"/><path d="M233.2026,190.1888c0,0 -0.4416,-0.66357 0.00559,-1.06282c0.3515,-0.31382 1.59488,-0.23584 1.71134,-1.09201c0.55829,-4.10432 0.16336,-12.22138 0.11759,-16.32066c-0.01007,-0.9023 -1.03153,-1.00445 -1.49304,-1.21864c-0.56009,-0.25995 -0.57818,-0.54356 -0.57895,-0.81467c-0.00097,-0.34031 0.17768,-0.53795 0.17768,-0.53795c0,0 11.69096,-0.16567 13.51222,-0.1348c0.4747,0.00805 0.59867,0.37397 0.59867,0.37397c0,0 -0.21455,2.65767 -0.44023,3.62836c-0.10919,0.46966 -0.90073,1.70305 -0.90073,1.70305c0,0 -0.48536,-1.22927 -0.70617,-1.78571c-0.27035,-0.68128 -0.23356,-0.56249 -0.32819,-0.91919c-0.03349,-0.12624 -0.09429,-0.65824 -0.45548,-0.7589c-1.4105,-0.39306 -4.8459,-0.17222 -4.8459,-0.17222l-0.11618,7.75054l3.71909,-0.02195c0,0 0.20146,-1.50486 0.56946,-2.15012c0.22775,-0.39934 0.68975,-0.06364 0.81436,-0.05966c0.09992,0.0032 0.29846,4.56909 0.09304,6.34868c-0.01922,0.16654 -0.63677,0.55461 -0.94567,0.1632c-0.48444,-0.61385 -0.67355,-2.42407 -0.67355,-2.42407l-3.60183,-0.18124c0,0 0.06303,5.46054 0.33964,7.40685c0.13684,0.96285 1.22373,0.80444 1.90045,0.97905c0.4072,0.10507 0.55146,0.59771 0.57335,0.77531c0.05588,0.45343 -0.31693,0.5256 -0.31693,0.5256c0,0 -3.20883,0.17938 -4.66377,0.17938c-1.45494,0 -4.06585,-0.17938 -4.06585,-0.17938z" fill="#b8b8b8" stroke="none"/></g></g></g></svg>