<svg version="1.1" xmlns="http://www.w3.org/2000/svg" xmlns:xlink="http://www.w3.org/1999/xlink" width="185.33333" height="161" viewBox="0,0,185.33333,161"><g transform="translate(-147.66667,-101.5)"><g data-paper-data="{&quot;isPaintingLayer&quot;:true}" fill-rule="nonzero" stroke-width="1" stroke-linecap="butt" stroke-linejoin="miter" stroke-miterlimit="10" stroke-dasharray="" stroke-dashoffset="0" style="mix-blend-mode: normal"><path d="M148.16667,153.66667v-34.66666h18.33333v34.66666z" fill="none" stroke="#ffffff"/><path d="M206.16667,118.33334v-16.33334h52.33334v16.33334z" fill="none" stroke="#ffffff"/><path d="M172.83334,189v-70.33334h118v70.33334z" fill="none" stroke="#ffffff"/><path d="M154.83334,185v-23.66666h18v23.66666z" fill="none" stroke="#ffffff"/><path d="M298.16667,188.33334v-58.66667h13.66667v58.66667z" fill="none" stroke="#ffffff"/><path d="M291.5,146v-7h6.66667v7z" fill="none" stroke="#ffffff"/><path d="M312.16667,156.33334v-6.66667h6.33333v6.66667z" fill="none" stroke="#ffffff"/><path d="M312.83333,184v-6.33334h5v6.33334z" fill="none" stroke="#ffffff"/><path d="M167.16667,130.66667v-6.33333h5.66667v6.33333z" fill="none" stroke="#ffffff"/><path d="M202.16667,195v-5.66666h7.66667v5.66666z" fill="none" stroke="#ffffff"/><path d="M255.16667,195v-5.33334h6.33334v5.33334z" fill="none" stroke="#ffffff"/><path d="M277.83333,194.66667v-5.66666h7.33333v5.66666z" fill="none" stroke="#ffffff"/><path d="M275.16667,228.66667v-33.66666h41v33.66666z" fill="none" stroke="#ffffff"/><path d="M247.83334,262v-67h21v67z" fill="none" stroke="#ffffff"/><path d="M195.83334,261.66667v-66.33333h20v66.33333z" fill="none" stroke="#ffffff"/><path d="M170.83334,237.33334v-34.33334h18.33333v34.33334z" fill="none" stroke="#ffffff"/><path d="M189.5,223.66667v-6.33333h6v6.33333z" fill="none" stroke="#ffffff"/><path d="M216.16667,252v-6.66666h5.66667v6.66666z" fill="none" stroke="#ffffff"/><path d="M241.5,252v-7.33334h6.33334v7.33334z" fill="none" stroke="#ffffff"/><path d="M222.16667,261.33333v-28.66667h19.33334v28.66667z" fill="none" stroke="#ffffff"/><path d="M319.16667,160.66667v-15h13.33333v15z" fill="none" stroke="#ffffff"/><path d="M318.83333,187.66667v-13.66666h13.66667v13.66666z" fill="none" stroke="#ffffff"/><path d="M229.83334,255v-5.33334h4.66666v5.33334z" fill="#ffffff" stroke="#ffffff"/><text transform="translate(224.83334,247.40148) scale(0.17629,0.17629)" font-size="40" xml:space="preserve" fill="#ffffff" fill-rule="nonzero" stroke="none" stroke-width="1" stroke-linecap="butt" stroke-linejoin="miter" stroke-miterlimit="10" stroke-dasharray="" stroke-dashoffset="0" font-family="Pixel" font-weight="normal" text-anchor="start" style="mix-blend-mode: normal"><tspan x="0" dy="0">YOU</tspan></text></g></g></svg>