<svg version="1.1" xmlns="http://www.w3.org/2000/svg" xmlns:xlink="http://www.w3.org/1999/xlink" width="360.50006" height="360.50006" viewBox="0,0,360.50006,360.50006"><defs><radialGradient cx="240" cy="180" r="180.25003" gradientUnits="userSpaceOnUse" id="color-1"><stop offset="0" stop-color="#ffffff"/><stop offset="1" stop-color="#ffffff" stop-opacity="0"/></radialGradient><radialGradient cx="240" cy="180" r="149.06349" gradientUnits="userSpaceOnUse" id="color-2"><stop offset="0" stop-color="#ffffff"/><stop offset="1" stop-color="#ffffff" stop-opacity="0"/></radialGradient><radialGradient cx="240" cy="180" r="84.28076" gradientUnits="userSpaceOnUse" id="color-3"><stop offset="0" stop-color="#ffffff"/><stop offset="1" stop-color="#ffffff" stop-opacity="0"/></radialGradient><radialGradient cx="240" cy="180" r="124.24155" gradientUnits="userSpaceOnUse" id="color-4"><stop offset="0" stop-color="#ffffff"/><stop offset="1" stop-color="#ffffff" stop-opacity="0"/></radialGradient></defs><g transform="translate(-59.74997,0.25003)"><g data-paper-data="{&quot;isPaintingLayer&quot;:true}" fill-rule="nonzero" stroke="none" stroke-width="0" stroke-linecap="butt" stroke-linejoin="miter" stroke-miterlimit="10" stroke-dasharray="" stroke-dashoffset="0" style="mix-blend-mode: normal"><path d="M59.74997,180c0,-99.54935 80.70068,-180.25003 180.25003,-180.25003c99.54935,0 180.25003,80.70068 180.25003,180.25003c0,99.54935 -80.70068,180.25003 -180.25003,180.25003c-99.54935,0 -180.25003,-80.70068 -180.25003,-180.25003z" fill="url(#color-1)"/><path d="M90.93651,180c0,-82.32549 66.73799,-149.06349 149.06349,-149.06349c82.32549,0 149.06349,66.73799 149.06349,149.06349c0,82.32549 -66.73799,149.06349 -149.06349,149.06349c-82.32549,0 -149.06349,-66.73799 -149.06349,-149.06349z" fill="url(#color-2)"/><path d="M155.71924,180c0,-46.54698 37.73378,-84.28076 84.28076,-84.28076c46.54698,0 84.28076,37.73378 84.28076,84.28076c0,46.54698 -37.73378,84.28076 -84.28076,84.28076c-46.54698,0 -84.28076,-37.73378 -84.28076,-84.28076z" fill="url(#color-3)"/><path d="M115.75845,180c0,-68.61672 55.62483,-124.24155 124.24155,-124.24155c68.61672,0 124.24155,55.62483 124.24155,124.24155c0,68.61672 -55.62483,124.24155 -124.24155,124.24155c-68.61672,0 -124.24155,-55.62483 -124.24155,-124.24155z" fill="url(#color-4)"/></g></g></svg>