<svg version="1.1" xmlns="http://www.w3.org/2000/svg" xmlns:xlink="http://www.w3.org/1999/xlink" width="138.58219" height="119.64521" viewBox="0,0,138.58219,119.64521"><g transform="translate(-245.86507,-154.50068)"><g data-paper-data="{&quot;isPaintingLayer&quot;:true}" fill="none" fill-rule="nonzero" stroke="#ff0000" stroke-width="0.5" stroke-linecap="round" stroke-linejoin="miter" stroke-miterlimit="10" stroke-dasharray="" stroke-dashoffset="0" style="mix-blend-mode: normal"><path d="M264.65754,167.37534h88.3726v51.6822h-88.3726z"/><path d="M328.56987,167.37534v-12.62465h-39.45205v11.83561"/><path d="M259.52877,193.01918v-25.64384h-13.4137v24.85479h13.01918"/><path d="M258.73973,174.08219h5.91781"/><path d="M264.26302,198.93699h-14.20274v17.35891h14.59726"/><path d="M353.42466,182.36713h4.73424v-7.49589h11.04658v14.59726h4.33972v-3.55068h10.65206v12.62465l-11.83562,-0.39452v-3.15616h-3.15616v16.56986h4.33972v-3.55068h10.65206v10.25753h-11.04658v-2.76165h-4.73424v2.76165h-9.86302v-34.32329h-4.73424"/><path d="M368.81096,188.67945v26.43288"/><path d="M373.54521,215.50685v-4.33972"/><path d="M372.75617,195.78082l0.78904,-7.10137"/><path d="M286.35616,219.45206v3.55068h-5.12877v50.89315h15.3863v-50.82682h-13.01918"/><path d="M291.87945,219.05754v3.9452"/><path d="M280.43836,240.75617h-3.55068v-9.86302h-13.4137v23.27671h13.01918l0.36136,-13.80822"/><path d="M280.83288,245.49041h-3.9452"/><path d="M330.54247,219.45206v3.61702h5.52329v49.64326h-14.99178v-49.70959h5.12876v-3.97837"/><path d="M326.59726,223.03591h3.55068"/><path d="M342.77261,220.2411v28.40548h29.19452v-24.46028h-29.19452"/><path d="M348.69041,218.66302v5.12876"/><path d="M296.58054,262.06028h4.88176v-11.04657h15.27195v22.88219h-14.99178v-8.28493h-5.12876"/><path d="M316.70108,262.84932h4.25855"/><path d="M316.70108,266.00548h4.3729"/></g></g></svg>